# xmcd
#
# Track frame offsets:
# 150
# 26929
# 49977
# 72632
# 96413
# 109955
# 131651
# 145475
# 169224
# 189806
# 209110
# 232069
#
# Disc length: 3331 seconds
#
#
# Revision: 0
# Processed by: cddbd v1.5.2PL0 Copyright (c) Steve Scherf et al.
# Submitted via: FreeRIP 2.945 
#
DISCID=c70d010c
DTITLE=15ª Califórnia da Canção Nativa - 
DYEAR=1900
DGENRE=
TTITLE0=Gaita de Botão - Neto Fagundes
TTITLE1=E o Vento Canto II - Ivo Fraga
TTITLE2=Laço Partido - Elton Saldanha
TTITLE3=Teniaguá Mulher - Victor Hugo
TTITLE4=Vento Louco - Oristela Alves e João Quintana Vieira
TTITLE5=Ronco do Bronco - Telmo de Lima Freitas
TTITLE6=Astro Haragano - Jerônimo Jardim
TTITLE7=Misssioneiros Combatentes - Pery Souza e Canto Livre
TTITLE8=Da Terra Nascem os Gritos - Daniel Torres e João Almeida Neto
TTITLE9=Garibaldi, GAribladi - Marcelo Aurélio Vasconcelos
TTITLE10=Amor América - Visctor Hugo
TTITLE11=Mulher - Marlene Pastro
EXTD=
EXTT0=
EXTT1=
EXTT2=
EXTT3=
EXTT4=
EXTT5=
EXTT6=
EXTT7=
EXTT8=
EXTT9=
EXTT10=
EXTT11=
PLAYORDER=
